<svg xmlns="http://www.w3.org/2000/svg" viewBox="0 0 124.85 67.69"><defs><style>.cls-1{fill:#353535;}.cls-2{fill:#303030;}.cls-3{fill:aqua;}.cls-4{fill:#dadad9;}.cls-5{fill:#a4a6a9;}</style></defs><title>iconoRecurso 6</title><g id="Capa_2" data-name="Capa 2"><g id="Pagina_interna_Escritorio" data-name="Pagina interna Escritorio"><path class="cls-1" d="M123.94,31.32l-1.27-1.43q-3.3-3.55-6.89-6.8-3.31-3-6.87-5.65-3.26-2.44-6.71-4.62-3.13-1.94-6.4-3.68Q92.89,7.6,89.86,6.28,87.21,5.12,84.5,4.15q-2.25-.76-4.62-1.48c-1.24-.32-2.49-.62-3.75-1A54.3,54.3,0,0,0,62.4,0,59.08,59.08,0,0,0,56,.45a71.66,71.66,0,0,0-7.93,1.44A86,86,0,0,0,38.7,4.7C18.22,12.13,1.33,30.56,1.33,30.56a5.46,5.46,0,0,0-1,5.38c4.86,5.63,30.71,32.5,64,31.74s59.64-31.23,59.64-31.23S126,34.65,123.94,31.32ZM110,34.66a10.75,10.75,0,0,1-1.54,2.08q-.9,1.16-1.86,2.27-1.37,1.62-2.82,3.2Q102,44.16,100.14,46,98,48.15,95.68,50.15C94,51.58,92.31,53,90.54,54.27s-3.76,2.64-5.73,3.81a55,55,0,0,1-6.23,3.2,43.23,43.23,0,0,1-6.63,2.26,35,35,0,0,1-6.93,1h-.74q-1.94,0-3.89-.09A36.17,36.17,0,0,1,56.62,64q-1.85-.31-3.66-.78T49.4,62.18q-1.74-.6-3.44-1.32t-3.31-1.55q-1.61-.82-3.18-1.72t-2.95-1.85L33.61,53.8a28.76,28.76,0,0,1-2.71-2q-1.28-1-2.54-2.08T26,47.58q-1.14-1-2.11-2T22,43.6q-.88-.9-1.75-1.84t-1.53-1.68q-.65-.74-1.29-1.5l-1-1.27c-.54-.66-1.09-1.33-1.57-2-.38-.54-.77-1.73-.21-2.28,0,0,17.15-21.5,34-27.13a42,42,0,0,1,28.19.33c.63.24,1.26.46,1.89.72,1,.43,2,.89,3,1.39,1.35.69,2.66,1.43,4,2.23,1.63,1,3.23,2.08,4.78,3.21,1.89,1.37,3.7,2.84,5.47,4.35,2.09,1.8,4.09,3.69,6,5.66q3.37,3.42,6.44,7.12c.37.44.72.89,1.1,1.32a2.92,2.92,0,0,1,.82,1.32,1.94,1.94,0,0,1-.24,1.14Z"/><path class="cls-2" d="M56.21,42.66c.5-1.64,1.08-3.4,1.76-5.19a54.6,54.6,0,0,1,4.33-9,2.18,2.18,0,0,1-.45-1.28,31.51,31.51,0,0,0-8-.61A2.2,2.2,0,0,1,52.2,28.6a34.35,34.35,0,0,0,4,14.06Z"/><path class="cls-2" d="M60.33,50.84a35.48,35.48,0,0,1-3.16-4,2.18,2.18,0,0,1-.74.15c-.24,1-.45,1.86-.61,2.6A17.14,17.14,0,0,0,60.33,50.84Z"/><path class="cls-2" d="M74.38,34.53a21.38,21.38,0,0,0-8.52-6.15,2.19,2.19,0,0,1-2.42.86A53.46,53.46,0,0,0,59.26,38C58.6,39.73,58,41.44,57.54,43a2.2,2.2,0,0,1,1,1.26,23.11,23.11,0,0,0,13-4.69,25.1,25.1,0,0,0,2.42-2.06,2.19,2.19,0,0,1,.47-3.05Z"/><path class="cls-2" d="M65.81,25.81A2.19,2.19,0,0,1,66.25,27a23,23,0,0,1,9.58,7.07,2.19,2.19,0,0,1,1,.27,22.24,22.24,0,0,0,2.34-3.77l.21.1a17,17,0,0,0-4.93-9.16A17.38,17.38,0,0,0,72.66,20,20,20,0,0,0,65.81,25.81Z"/><path class="cls-2" d="M54.92,43.2a35.3,35.3,0,0,1-4.11-14.73A2.2,2.2,0,0,1,49.56,27q-1.51.22-3.07.55a17.16,17.16,0,0,0,1.33,15.29,35.75,35.75,0,0,0,6.47,1.32A2.2,2.2,0,0,1,54.92,43.2Z"/><path class="cls-2" d="M78.08,40.85a16.37,16.37,0,0,0-1.21-2.71,2.19,2.19,0,0,1-1.8.25,26.82,26.82,0,0,1-2.75,2.35,24.45,24.45,0,0,1-11,4.6,26.43,26.43,0,0,1-2.92.28,2.19,2.19,0,0,1-.18.38,33.46,33.46,0,0,0,4.15,5A17.18,17.18,0,0,0,78.1,40.84Z"/><path class="cls-2" d="M77.7,35.41A2.19,2.19,0,0,1,77.77,37a21.38,21.38,0,0,1,1,2,17.17,17.17,0,0,0,.74-6.3A26.94,26.94,0,0,1,77.7,35.41Z"/><path class="cls-2" d="M52.2,24.33a2.2,2.2,0,0,1,1.27.85q1-.06,2.05-.06a31.37,31.37,0,0,1,6.63.67h.13A2.19,2.19,0,0,1,64.66,25,21.94,21.94,0,0,1,71.3,19.2a17.19,17.19,0,0,0-18.56.53A38.32,38.32,0,0,0,52.2,24.33Z"/><path class="cls-2" d="M49.7,25.54a2.2,2.2,0,0,1,1.11-1.09q.09-1.75.35-3.52-.53.47-1,1A17.13,17.13,0,0,0,47.21,26Q48.47,25.73,49.7,25.54Z"/><path class="cls-2" d="M55.11,46.66a2.2,2.2,0,0,1-.85-1.15,35.63,35.63,0,0,1-5.19-.91,17.24,17.24,0,0,0,5.46,4.47C54.7,48.36,54.88,47.54,55.11,46.66Z"/><circle class="cls-3" cx="64.08" cy="27.21" r="2.29"/><circle class="cls-3" cx="51.75" cy="26.52" r="2.29"/><circle class="cls-3" cx="75.62" cy="36.42" r="2.29"/><circle class="cls-3" cx="56.41" cy="44.67" r="2.29"/><path class="cls-4" d="M78.16,46.95l5.19,4.33a27.09,27.09,0,0,0,5.38-10.33L82.2,39.17A20.35,20.35,0,0,1,78.16,46.95Z"/><path class="cls-4" d="M48.71,49A20.41,20.41,0,0,1,42,35l-6.76.38A27.15,27.15,0,0,0,44.17,54l1.06.91,4.28-5.24Q49.1,49.33,48.71,49Z"/><path class="cls-4" d="M70.49,52.66l2.66,6.22a27,27,0,0,0,2.65-1.3l-3.28-5.91A20.31,20.31,0,0,1,70.49,52.66Z"/><path class="cls-4" d="M58.93,54l-1.16,6.67a27.38,27.38,0,0,0,11.66-.52l-1.76-6.54A20.58,20.58,0,0,1,58.93,54Z"/><path class="cls-4" d="M73.23,51.27,76.77,57a27.07,27.07,0,0,0,2.92-2.09l-4.24-5.26A20.35,20.35,0,0,1,73.23,51.27Z"/><path class="cls-4" d="M80.56,54.19q.55-.5,1.09-1l-4.77-4.8q-.4.4-.82.77Z"/><path class="cls-5" d="M82.61,37.33l6.67,1.16a27.22,27.22,0,0,0-7.54-23.86L76.95,19.4A20.41,20.41,0,0,1,82.61,37.33Z"/><path class="cls-4" d="M44.16,24.61l-6-3.05a27,27,0,0,0-1.41,3.32l6.39,2.23A20.32,20.32,0,0,1,44.16,24.61Z"/><path class="cls-4" d="M50.18,50.23l-4.05,5.41a27.06,27.06,0,0,0,7.36,3.89l2.23-6.32A20.34,20.34,0,0,1,50.18,50.23Z"/><path class="cls-4" d="M47.26,20.11a20.41,20.41,0,0,1,15.55-6.75L63,6.56A27.27,27.27,0,0,0,38.67,20.5l5.91,3.3A20.53,20.53,0,0,1,47.26,20.11Z"/><path class="cls-4" d="M42.11,31.42l-6.72-.8a27.36,27.36,0,0,0-.18,3.61l6.8-.1A20.57,20.57,0,0,1,42.11,31.42Z"/><path class="cls-4" d="M56.53,53.44l-1.94,6.47.76.21,1.77-6.53Z"/><path class="cls-4" d="M35.6,29.49l6.68,1.08a20.41,20.41,0,0,1,.56-2.62L36.37,26A27.22,27.22,0,0,0,35.6,29.49Z"/><path class="cls-4" d="M75.66,10,72.4,16a20.49,20.49,0,0,1,3.15,2.17l4.34-5.19A27.22,27.22,0,0,0,75.66,10Z"/><path class="cls-4" d="M70.73,15.12l2.7-6.2a27.15,27.15,0,0,0-8-2.15l-.79,6.72A20.41,20.41,0,0,1,70.73,15.12Z"/></g></g></svg>