<svg xmlns="http://www.w3.org/2000/svg" viewBox="0 0 440.11 50.95"><defs><style>.cls-1{fill:#353535;}.cls-2{fill:aqua;}</style></defs><title>logonombrebigRecurso 5</title><g id="Capa_2" data-name="Capa 2"><g id="Pagina_interna_Escritorio" data-name="Pagina interna Escritorio"><path class="cls-1" d="M1.27,41.15A4.18,4.18,0,0,1,0,38.06V20.71A10.29,10.29,0,0,1,10.29,10.42H21.88A10.29,10.29,0,0,1,32.16,20.71V32.3a1.46,1.46,0,1,0,2.91,0V20.71a10.29,10.29,0,1,1,20.27,0v5.79a4.11,4.11,0,0,1-1.51,3.09A4.25,4.25,0,0,1,51,30.86a4.35,4.35,0,0,1-4.49-4.22s0-.09,0-.14V20.71A1.46,1.46,0,0,0,45,19.27a1.44,1.44,0,0,0-1.44,1.44V32.3a10.29,10.29,0,0,1-20.3,0V20.71a1.44,1.44,0,0,0-1.44-1.44H10.15a1.47,1.47,0,0,0-1.44,1.44V38.06a4.11,4.11,0,0,1-1.47,3.09,4.25,4.25,0,0,1-2.85,1.27A4.18,4.18,0,0,1,1.27,41.15Z"/><path class="cls-2" d="M47.66,41.15a4.32,4.32,0,1,1,3.09,1.27A4.18,4.18,0,0,1,47.66,41.15Z"/><path class="cls-1" d="M88.67,21.23A7.17,7.17,0,0,0,83.43,19H66.28a7.44,7.44,0,0,0-7.44,7.44,7.61,7.61,0,0,0,.34,2.26,7.17,7.17,0,0,0,1,2,6.86,6.86,0,0,0-1,2,7.47,7.47,0,0,0,7.1,9.7H79a3.19,3.19,0,0,0,3.19-3.19h0a3.12,3.12,0,0,0-.93-2.09A3,3,0,0,0,79,36H66.42a1,1,0,0,1-.75-.31,1,1,0,0,1-.31-.75,1.1,1.1,0,0,1,1.06-1.06H83.56a7.44,7.44,0,0,0,5.25-12.69Zm-4.46,6a1,1,0,0,1-.75.31H66.32a1,1,0,0,1-.75-.31,1,1,0,0,1-.31-.75,1.1,1.1,0,0,1,1.06-1.06H83.46a1,1,0,0,1,.75.31,1,1,0,0,1,.31.75A1,1,0,0,1,84.22,27.23Z"/><path class="cls-2" d="M85.42,41.49a3.19,3.19,0,1,1,2.26.93A3.09,3.09,0,0,1,85.42,41.49Z"/><path class="cls-1" d="M116.83,42.42A7.44,7.44,0,0,1,109.38,35V22.25a3.19,3.19,0,0,1,3.19-3.19h0a3.12,3.12,0,0,1,2.09.93,3,3,0,0,1,1.1,2.26V35a1.1,1.1,0,0,0,1.06,1.06h8.54A1.1,1.1,0,0,0,126.43,35a7.44,7.44,0,0,1,7.44-7.44,1,1,0,0,0,.75-.31,1,1,0,0,0,.31-.75V22.25a3.09,3.09,0,0,1,.93-2.26,3.05,3.05,0,0,1,2.26-.93,3.12,3.12,0,0,1,2.09.93,3,3,0,0,1,1.1,2.26v4.25a7.44,7.44,0,0,1-7.44,7.44A1.06,1.06,0,0,0,132.8,35a7.44,7.44,0,0,1-7.44,7.41Z"/><path class="cls-2" d="M118.81,33a3.19,3.19,0,1,1,2.26.93A3.05,3.05,0,0,1,118.81,33Z"/><path class="cls-1" d="M174.84,21.23A7.17,7.17,0,0,0,169.6,19H152.45A7.44,7.44,0,0,0,145,26.47a7.61,7.61,0,0,0,.34,2.26,7.17,7.17,0,0,0,1,2,6.86,6.86,0,0,0-1,2,7.47,7.47,0,0,0,7.1,9.7h12.76a3.19,3.19,0,0,0,3.19-3.19h0a3.12,3.12,0,0,0-.93-2.09,3,3,0,0,0-2.26-1.1H152.59a1,1,0,0,1-.75-.31,1,1,0,0,1-.31-.75,1.1,1.1,0,0,1,1.06-1.06h17.14A7.44,7.44,0,0,0,175,21.23Zm-4.53,6a1,1,0,0,1-.75.31H152.42a1,1,0,0,1-.75-.31,1,1,0,0,1-.31-.75,1.1,1.1,0,0,1,1.06-1.06h17.14a1,1,0,0,1,.75.31,1,1,0,0,1,.31.75,1,1,0,0,1-.27.75Z"/><path class="cls-2" d="M171.59,41.49a3.19,3.19,0,1,1,2.26.93A3.09,3.09,0,0,1,171.59,41.49Z"/><path class="cls-1" d="M192.6,42.42a3,3,0,0,1-2.09-.93,3.12,3.12,0,0,1-.93-2.09,3.19,3.19,0,0,1,3.19-3.19h12.76a1.06,1.06,0,1,0,0-2.13H188.39a7.44,7.44,0,0,1,0-14.88h21.26a3.19,3.19,0,0,1,3.19,3.19h0a3.12,3.12,0,0,1-.93,2.09,3,3,0,0,1-2.26,1.1H188.39a1.1,1.1,0,0,0-1.06,1.06,1,1,0,0,0,.31.75,1,1,0,0,0,.75.31h17.14a7.44,7.44,0,1,1,0,14.88h0Z"/><path class="cls-2" d="M181.87,41.49a3.19,3.19,0,1,1,2.26.93A3.09,3.09,0,0,1,181.87,41.49Z"/><path class="cls-1" d="M235.47,42.42a9.88,9.88,0,0,1-9.88-9.88V21.26a9.88,9.88,0,0,1,9.88-9.88h16.94a4,4,0,0,1,3,1.47,4.11,4.11,0,0,1-3,6.86H235.47a1.44,1.44,0,0,0-1.41,1.41V32.4a1.4,1.4,0,0,0,1.41,1.41h22.6a1.47,1.47,0,0,0,1.44-1.41V15.6a4.08,4.08,0,0,1,6.86-3,4,4,0,0,1,1.47,3V32.54A9.88,9.88,0,0,1,258,42.42Z"/><path class="cls-2" d="M260.7,7.2a4.22,4.22,0,1,1,3,1.23A4.08,4.08,0,0,1,260.7,7.2Z"/><path class="cls-1" d="M281.28,41.49a3.09,3.09,0,0,1-.93-2.26V26.51a1.06,1.06,0,0,0-1.06-1.06H275a3.05,3.05,0,0,1-2.19-1.1,3,3,0,0,1-.14-4.22l.14-.14a3,3,0,0,1,2.26-1.1h4.25a7.44,7.44,0,0,1,7.44,7.44V39.09a3,3,0,0,1-1.1,2.26,3.12,3.12,0,0,1-2.09.93A3.05,3.05,0,0,1,281.28,41.49Z"/><path class="cls-2" d="M281.28,16a3.19,3.19,0,1,1,2.26.93A3.09,3.09,0,0,1,281.28,16Z"/><path class="cls-2" d="M291.56,50a3.19,3.19,0,1,1,2.26.93A3.09,3.09,0,0,1,291.56,50Z"/><path class="cls-1" d="M322.49,35v-8.5a7.44,7.44,0,0,0-7.44-7.44H297.91a7.44,7.44,0,0,0-7.44,7.44V35a7.44,7.44,0,0,0,7.44,7.44h17.14a1.06,1.06,0,0,1,0,2.13H302.3a3,3,0,0,0-2.26,1.1,3.12,3.12,0,0,0-.93,2.09A3.19,3.19,0,0,0,302.3,51h12.76a7.47,7.47,0,0,0,7.1-9.7,6.86,6.86,0,0,0-1-2,7.17,7.17,0,0,0,1-2A7.41,7.41,0,0,0,322.49,35Zm-6.38,0a1.1,1.1,0,0,1-1.06,1.06H297.91a1,1,0,0,1-.75-.31,1,1,0,0,1-.31-.75v-8.5a1.1,1.1,0,0,1,1.06-1.06h17.14a1,1,0,0,1,.75.31,1,1,0,0,1,.31.75Z"/><path class="cls-2" d="M308.54,33a3.19,3.19,0,1,1,2.26.93A3.12,3.12,0,0,1,308.54,33Z"/><path class="cls-1" d="M335.83,41.49a3.09,3.09,0,0,1-.93-2.26V26.51a1.06,1.06,0,0,0-1.06-1.06h-4.25a3.05,3.05,0,0,1-2.26-.93,3,3,0,0,1-.14-4.22l.14-.14a3,3,0,0,1,2.26-1.1h4.25a7.44,7.44,0,0,1,7.54,7.34s0,.07,0,.1V39.26a3,3,0,0,1-1.1,2.26,3.12,3.12,0,0,1-2.09.93A3.05,3.05,0,0,1,335.83,41.49Z"/><path class="cls-2" d="M335.83,16a3.19,3.19,0,1,1,2.26.93A3.09,3.09,0,0,1,335.83,16Z"/><path class="cls-2" d="M346.12,24.35a3.19,3.19,0,1,1,2.26.93A3.09,3.09,0,0,1,346.12,24.35Z"/><path class="cls-1" d="M361.1,42.42A7.44,7.44,0,0,1,353.66,35V26.51a7.48,7.48,0,0,1,.34-2.26,7.17,7.17,0,0,1,1-2,6.86,6.86,0,0,1-1-2,7.48,7.48,0,0,1-.34-2.26V13.75a3,3,0,0,1,1.1-2.26,3.09,3.09,0,0,1,2.09-.93A3.19,3.19,0,0,1,360,13.75h0V18a1.05,1.05,0,0,0,1.06,1.06h12.76a3,3,0,0,1,2.26,1.1,3,3,0,0,1,.14,4.22l-.14.14a3.05,3.05,0,0,1-2.26.93H361.1A1.05,1.05,0,0,0,360,26.51V35a1,1,0,0,0,.31.75,1,1,0,0,0,.75.31h4.29a3,3,0,0,1,2.26,1.1,3.12,3.12,0,0,1,.93,2.09,3.19,3.19,0,0,1-3.19,3.19h0Z"/><path class="cls-1" d="M388.4,42.42A7.44,7.44,0,0,1,381,35V26.51a7.44,7.44,0,0,1,7.44-7.44h17.14A7.44,7.44,0,0,1,413,26.51v4.25a3,3,0,0,1-1.1,2.26,3.12,3.12,0,0,1-2.09.93,3.19,3.19,0,0,1-3.19-3.19V26.51a1.05,1.05,0,0,0-1.06-1.06H388.4a1.05,1.05,0,0,0-1.06,1.06V35a1.1,1.1,0,0,0,1.06,1.06h12.76a3,3,0,0,1,2.26,1.1,3.12,3.12,0,0,1,.93,2.09,3.19,3.19,0,0,1-3.19,3.19Z"/><path class="cls-2" d="M407.39,41.49a3.19,3.19,0,1,1,2.26.93A3.09,3.09,0,0,1,407.39,41.49Z"/><path class="cls-1" d="M424.16,42.42A7.44,7.44,0,0,1,416.82,35V13.75A3.19,3.19,0,0,1,420,10.56a3.12,3.12,0,0,1,2.09.93,3,3,0,0,1,1.1,2.26V35a1.1,1.1,0,0,0,1.06,1.06h4.25a3,3,0,0,1,2.26,1.1,3.09,3.09,0,0,1,1,2.09,3.19,3.19,0,0,1-3.19,3.19Z"/><path class="cls-2" d="M434.65,41.49a3.19,3.19,0,1,1,4.53,0,3.19,3.19,0,0,1-4.53,0Z"/></g></g></svg>