<svg id="Capa_1" data-name="Capa 1" xmlns="http://www.w3.org/2000/svg" viewBox="0 0 155 92"><defs><style>.cls-1{fill:#383838;}.cls-2{fill:#333;}.cls-3{fill:aqua;}.cls-4{fill:#dadad9;}.cls-5{fill:#a4a5a8;}</style></defs><title>Diseño-logo</title><path class="cls-1" d="M140.89,34.47,139.58,33q-3.39-3.65-7.09-7-3.41-3.06-7.07-5.81-3.35-2.51-6.9-4.75-3.22-2-6.58-3.79-3-1.58-6.12-2.94-2.72-1.19-5.51-2.19Q98,5.74,95.56,5C94.28,4.67,93,4.36,91.7,4A55.87,55.87,0,0,0,77.57,2.25a60.78,60.78,0,0,0-6.6.46,73.73,73.73,0,0,0-8.16,1.48,88.48,88.48,0,0,0-9.62,2.9c-21.07,7.64-38.45,26.6-38.45,26.6a5.62,5.62,0,0,0-1.05,5.53c5,5.79,31.6,33.44,65.83,32.65s61.36-32.13,61.36-32.13S143,37.9,140.89,34.47Zm-14.31,3.44A11.06,11.06,0,0,1,125,40.05q-.93,1.19-1.91,2.34-1.41,1.67-2.9,3.29-1.85,2-3.79,3.92-2.23,2.19-4.59,4.24c-1.71,1.48-3.47,2.9-5.29,4.24s-3.87,2.72-5.9,3.92a56.55,56.55,0,0,1-6.41,3.29,44.48,44.48,0,0,1-6.82,2.33,36,36,0,0,1-7.13,1.06l-.76,0q-2,.05-4-.09t-3.87-.47q-1.9-.32-3.77-.8t-3.66-1.1q-1.79-.62-3.54-1.36t-3.41-1.59q-1.66-.84-3.27-1.77T50.95,59.6q-1.5-1-3-2t-2.79-2.1q-1.32-1-2.61-2.14T40.17,51.2Q39,50.17,38,49.11t-2-2q-.91-.93-1.8-1.89t-1.57-1.73q-.67-.76-1.33-1.54l-1.08-1.31c-.56-.68-1.12-1.37-1.62-2.09-.39-.56-.79-1.78-.22-2.35,0,0,17.64-22.12,35-27.91a43.21,43.21,0,0,1,29,.34c.65.25,1.3.47,1.94.74,1,.44,2.07.92,3.08,1.43,1.39.71,2.74,1.47,4.07,2.29,1.68,1,3.32,2.14,4.92,3.3,1.94,1.41,3.81,2.92,5.63,4.48,2.15,1.85,4.21,3.8,6.2,5.82q3.47,3.52,6.63,7.33c.38.45.74.92,1.13,1.36a3,3,0,0,1,.84,1.36A2,2,0,0,1,126.57,37.91Z"/><path class="cls-2" d="M71.2,46.14c.51-1.69,1.11-3.5,1.81-5.34a56.17,56.17,0,0,1,4.45-9.29A2.24,2.24,0,0,1,77,30.19a32.42,32.42,0,0,0-8.2-.63,2.26,2.26,0,0,1-1.72,2.11,35.34,35.34,0,0,0,4.1,14.47Z"/><path class="cls-2" d="M75.44,54.56a36.5,36.5,0,0,1-3.25-4.07,2.24,2.24,0,0,1-.76.15c-.25,1-.46,1.91-.63,2.68A17.63,17.63,0,0,0,75.44,54.56Z"/><path class="cls-2" d="M89.9,37.77a22,22,0,0,0-8.77-6.33,2.25,2.25,0,0,1-2.49.88,55,55,0,0,0-4.3,9c-.68,1.8-1.27,3.56-1.77,5.21a2.26,2.26,0,0,1,1,1.3A23.78,23.78,0,0,0,86.93,43a25.82,25.82,0,0,0,2.49-2.12,2.25,2.25,0,0,1,.48-3.14Z"/><path class="cls-2" d="M81.08,28.8a2.25,2.25,0,0,1,.45,1.26,23.7,23.7,0,0,1,9.86,7.27,2.25,2.25,0,0,1,1,.28,22.88,22.88,0,0,0,2.41-3.88l.22.1a17.54,17.54,0,0,0-5.07-9.42,17.88,17.88,0,0,0-1.82-1.54A20.56,20.56,0,0,0,81.08,28.8Z"/><path class="cls-2" d="M69.88,46.69a36.32,36.32,0,0,1-4.23-15.15A2.26,2.26,0,0,1,64.36,30q-1.55.23-3.16.57A17.65,17.65,0,0,0,62.57,46.3a36.78,36.78,0,0,0,6.66,1.36A2.26,2.26,0,0,1,69.88,46.69Z"/><path class="cls-2" d="M93.7,44.28a16.84,16.84,0,0,0-1.25-2.79,2.25,2.25,0,0,1-1.85.26,27.59,27.59,0,0,1-2.83,2.42A25.15,25.15,0,0,1,76.44,48.9a27.19,27.19,0,0,1-3,.29,2.25,2.25,0,0,1-.19.39,34.42,34.42,0,0,0,4.27,5.11A17.68,17.68,0,0,0,93.73,44.27Z"/><path class="cls-2" d="M93.31,38.68a2.25,2.25,0,0,1,.08,1.59,22,22,0,0,1,1.06,2.07,17.66,17.66,0,0,0,.76-6.48A27.72,27.72,0,0,1,93.31,38.68Z"/><path class="cls-2" d="M67.08,27.28a2.26,2.26,0,0,1,1.31.87q1.07-.06,2.11-.06a32.27,32.27,0,0,1,6.82.69l.13,0A2.25,2.25,0,0,1,79.9,28a22.57,22.57,0,0,1,6.83-6,17.69,17.69,0,0,0-19.09.55A39.42,39.42,0,0,0,67.08,27.28Z"/><path class="cls-2" d="M64.51,28.53a2.26,2.26,0,0,1,1.14-1.12q.09-1.8.36-3.62-.55.48-1.06,1a17.62,17.62,0,0,0-3,4.17Q63.24,28.72,64.51,28.53Z"/><path class="cls-2" d="M70.07,50.25a2.26,2.26,0,0,1-.87-1.18,36.66,36.66,0,0,1-5.34-.94,17.74,17.74,0,0,0,5.62,4.6C69.65,52,69.84,51.16,70.07,50.25Z"/><circle class="cls-3" cx="79.3" cy="30.24" r="2.36"/><circle class="cls-3" cx="66.62" cy="29.53" r="2.36"/><circle class="cls-3" cx="91.17" cy="39.72" r="2.36"/><circle class="cls-3" cx="71.41" cy="48.21" r="2.36"/><path class="cls-4" d="M93.79,50.55,99.13,55a27.87,27.87,0,0,0,5.53-10.63l-6.72-1.82A20.94,20.94,0,0,1,93.79,50.55Z"/><path class="cls-4" d="M63.49,52.68a21,21,0,0,1-6.9-14.44l-6.95.39a27.93,27.93,0,0,0,9.18,19.21q.54.48,1.09.94l4.4-5.39Q63.89,53,63.49,52.68Z"/><path class="cls-4" d="M85.9,56.43l2.74,6.4a27.83,27.83,0,0,0,2.73-1.34L88,55.41A20.9,20.9,0,0,1,85.9,56.43Z"/><path class="cls-4" d="M74,57.82l-1.19,6.86a28.17,28.17,0,0,0,12-.53L83,57.42A21.17,21.17,0,0,1,74,57.82Z"/><path class="cls-4" d="M88.71,55l3.65,5.92a27.85,27.85,0,0,0,3-2.15L91,53.36A20.94,20.94,0,0,1,88.71,55Z"/><path class="cls-4" d="M96.26,58q.57-.51,1.12-1.06L92.47,52q-.41.41-.84.79Z"/><path class="cls-5" d="M98.37,40.66l6.86,1.19A28,28,0,0,0,97.47,17.3l-4.93,4.91A21,21,0,0,1,98.37,40.66Z"/><path class="cls-4" d="M58.81,27.57,52.6,24.43a27.81,27.81,0,0,0-1.45,3.42l6.57,2.29A20.91,20.91,0,0,1,58.81,27.57Z"/><path class="cls-4" d="M65,53.93,60.83,59.5a27.84,27.84,0,0,0,7.57,4L70.69,57A20.93,20.93,0,0,1,65,53.93Z"/><path class="cls-4" d="M62,22.94A21,21,0,0,1,78,16l.16-7a28.06,28.06,0,0,0-25,14.34l6.08,3.4A21.12,21.12,0,0,1,62,22.94Z"/><path class="cls-4" d="M56.7,34.58l-6.91-.82a28.15,28.15,0,0,0-.19,3.71l7-.1A21.16,21.16,0,0,1,56.7,34.58Z"/><path class="cls-4" d="M71.53,57.23l-2,6.66.78.22,1.82-6.72Z"/><path class="cls-4" d="M50,32.59l6.87,1.11A21,21,0,0,1,57.45,31l-6.66-2A28,28,0,0,0,50,32.59Z"/><path class="cls-4" d="M91.22,12.57l-3.36,6.1a21.08,21.08,0,0,1,3.24,2.23l4.46-5.34A28,28,0,0,0,91.22,12.57Z"/><path class="cls-4" d="M86.14,17.81l2.78-6.38a27.93,27.93,0,0,0-8.21-2.21l-.81,6.91A21,21,0,0,1,86.14,17.81Z"/><path class="cls-1" d="M13.81,87.9a1.22,1.22,0,0,1-.37-.9V81.94a3,3,0,0,1,3-3h3.38a3,3,0,0,1,3,3v3.38a.42.42,0,0,0,.85,0V81.94a3,3,0,1,1,5.91,0v1.69a1.2,1.2,0,0,1-.44.9,1.24,1.24,0,0,1-.83.37A1.27,1.27,0,0,1,27,83.63V81.94a.4.4,0,0,0-.13-.3.4.4,0,0,0-.3-.12.42.42,0,0,0-.42.42v3.38a3,3,0,0,1-5.92,0V81.94a.42.42,0,0,0-.42-.42H16.4a.43.43,0,0,0-.42.42V87a1.2,1.2,0,0,1-.43.9,1.24,1.24,0,0,1-.83.37A1.22,1.22,0,0,1,13.81,87.9Z"/><path class="cls-3" d="M27.34,87.9a1.26,1.26,0,1,1,.9.37A1.22,1.22,0,0,1,27.34,87.9Z"/><path class="cls-1" d="M39.3,82.09a2.09,2.09,0,0,0-1.53-.64h-5a2.17,2.17,0,0,0-2.17,2.17,2.22,2.22,0,0,0,.1.66,2.09,2.09,0,0,0,.29.58,2,2,0,0,0-.29.58,2.19,2.19,0,0,0-.1.66,2.17,2.17,0,0,0,2.17,2.17h3.72a.93.93,0,0,0,.93-.93.91.91,0,0,0-.27-.61.88.88,0,0,0-.66-.32H32.81a.29.29,0,0,1-.22-.09.28.28,0,0,1-.09-.22.32.32,0,0,1,.31-.31h5a2.17,2.17,0,0,0,1.53-3.7ZM38,83.84a.29.29,0,0,1-.22.09h-5a.29.29,0,0,1-.22-.09.28.28,0,0,1-.09-.22.32.32,0,0,1,.31-.31h5a.29.29,0,0,1,.22.09.3.3,0,0,1,.09.22A.29.29,0,0,1,38,83.84Z"/><path class="cls-3" d="M38.35,88a.93.93,0,1,1,.66.27A.9.9,0,0,1,38.35,88Z"/><path class="cls-1" d="M47.51,88.27a2.17,2.17,0,0,1-2.17-2.17V82.39a.93.93,0,0,1,.93-.93.91.91,0,0,1,.61.27.88.88,0,0,1,.32.66v3.72a.32.32,0,0,0,.31.31H50a.32.32,0,0,0,.31-.31,2.17,2.17,0,0,1,2.17-2.17.29.29,0,0,0,.22-.09.28.28,0,0,0,.09-.22V82.39a.9.9,0,0,1,.27-.66.89.89,0,0,1,.66-.27.91.91,0,0,1,.61.27.88.88,0,0,1,.32.66v1.24a2.17,2.17,0,0,1-2.17,2.17.31.31,0,0,0-.31.31A2.17,2.17,0,0,1,50,88.27Z"/><path class="cls-3" d="M48.09,85.52a.93.93,0,1,1,.66.27A.89.89,0,0,1,48.09,85.52Z"/><path class="cls-1" d="M64.43,82.09a2.09,2.09,0,0,0-1.53-.64h-5a2.17,2.17,0,0,0-2.17,2.17,2.22,2.22,0,0,0,.1.66,2.09,2.09,0,0,0,.29.58,2,2,0,0,0-.29.58,2.19,2.19,0,0,0-.1.66,2.17,2.17,0,0,0,2.17,2.17h3.72a.93.93,0,0,0,.93-.93.91.91,0,0,0-.27-.61.88.88,0,0,0-.66-.32H57.94a.29.29,0,0,1-.22-.09.28.28,0,0,1-.09-.22.32.32,0,0,1,.31-.31h5a2.17,2.17,0,0,0,1.53-3.7Zm-1.32,1.75a.29.29,0,0,1-.22.09h-5a.29.29,0,0,1-.22-.09.28.28,0,0,1-.09-.22.32.32,0,0,1,.31-.31h5a.29.29,0,0,1,.22.09.3.3,0,0,1,.09.22A.29.29,0,0,1,63.12,83.84Z"/><path class="cls-3" d="M63.48,88a.93.93,0,1,1,.66.27A.9.9,0,0,1,63.48,88Z"/><path class="cls-1" d="M69.61,88.27A.88.88,0,0,1,69,88a.91.91,0,0,1-.27-.61.93.93,0,0,1,.93-.93h3.72a.32.32,0,0,0,.31-.31.32.32,0,0,0-.31-.31h-5a2.17,2.17,0,0,1,0-4.34h6.2a.93.93,0,0,1,.93.93.91.91,0,0,1-.27.61.88.88,0,0,1-.66.32h-6.2a.32.32,0,0,0-.31.31.28.28,0,0,0,.09.22.29.29,0,0,0,.22.09h5a2.17,2.17,0,1,1,0,4.34Z"/><path class="cls-3" d="M66.48,88a.93.93,0,1,1,.66.27A.9.9,0,0,1,66.48,88Z"/><path class="cls-1" d="M82.11,88.27a2.88,2.88,0,0,1-2.88-2.88V82.1a2.88,2.88,0,0,1,2.88-2.88h4.94a1.16,1.16,0,0,1,.87.43,1.2,1.2,0,0,1-.87,2H82.11a.42.42,0,0,0-.41.41v3.29a.38.38,0,0,0,.12.29.38.38,0,0,0,.29.12h6.59a.43.43,0,0,0,.42-.41V80.45a1.19,1.19,0,0,1,2-.87,1.17,1.17,0,0,1,.43.87v4.94a2.88,2.88,0,0,1-2.88,2.88Z"/><path class="cls-3" d="M89.47,78a1.23,1.23,0,1,1,.87.36A1.19,1.19,0,0,1,89.47,78Z"/><path class="cls-1" d="M95.47,88a.9.9,0,0,1-.27-.66V83.63a.31.31,0,0,0-.31-.31H93.64A.89.89,0,0,1,93,83a.87.87,0,0,1,0-1.27.88.88,0,0,1,.66-.32h1.24a2.17,2.17,0,0,1,2.17,2.17v3.72a.88.88,0,0,1-.32.66.91.91,0,0,1-.61.27A.89.89,0,0,1,95.47,88Z"/><path class="cls-3" d="M95.47,80.56a.93.93,0,1,1,.66.27A.9.9,0,0,1,95.47,80.56Z"/><path class="cls-3" d="M98.47,90.48a.93.93,0,1,1,.66.27A.9.9,0,0,1,98.47,90.48Z"/><path class="cls-1" d="M107.49,86.11V83.63a2.17,2.17,0,0,0-2.17-2.17h-5a2.17,2.17,0,0,0-2.17,2.17v2.48a2.17,2.17,0,0,0,2.17,2.17h5a.31.31,0,0,1,0,.62H101.6a.88.88,0,0,0-.66.32.91.91,0,0,0-.27.61.93.93,0,0,0,.93.93h3.72a2.17,2.17,0,0,0,2.17-2.17,2.15,2.15,0,0,0-.1-.66,2,2,0,0,0-.29-.58,2.09,2.09,0,0,0,.29-.58A2.16,2.16,0,0,0,107.49,86.11Zm-1.86,0a.32.32,0,0,1-.31.31h-5a.29.29,0,0,1-.22-.09.28.28,0,0,1-.09-.22V83.63a.32.32,0,0,1,.31-.31h5a.29.29,0,0,1,.22.09.3.3,0,0,1,.09.22Z"/><path class="cls-3" d="M103.42,85.52a.93.93,0,1,1,.66.27A.91.91,0,0,1,103.42,85.52Z"/><path class="cls-1" d="M111.38,88a.9.9,0,0,1-.27-.66V83.63a.31.31,0,0,0-.31-.31h-1.24a.89.89,0,0,1-.66-.27.87.87,0,0,1,0-1.27.88.88,0,0,1,.66-.32h1.24A2.17,2.17,0,0,1,113,83.63v3.72a.88.88,0,0,1-.32.66.91.91,0,0,1-.61.27A.89.89,0,0,1,111.38,88Z"/><path class="cls-3" d="M111.38,80.56a.93.93,0,1,1,.66.27A.9.9,0,0,1,111.38,80.56Z"/><path class="cls-3" d="M114.38,83a.93.93,0,1,1,.66.27A.9.9,0,0,1,114.38,83Z"/><path class="cls-1" d="M118.75,88.27a2.17,2.17,0,0,1-2.17-2.17V83.63a2.18,2.18,0,0,1,.1-.66,2.09,2.09,0,0,1,.29-.58,2,2,0,0,1-.29-.57,2.18,2.18,0,0,1-.1-.66V79.91a.87.87,0,0,1,.32-.66.9.9,0,0,1,.61-.27.93.93,0,0,1,.93.93v1.24a.29.29,0,0,0,.09.22.29.29,0,0,0,.22.09h3.72a.88.88,0,0,1,.66.32.87.87,0,0,1,0,1.27.89.89,0,0,1-.66.27h-3.72a.29.29,0,0,0-.22.09.29.29,0,0,0-.09.22v2.48a.29.29,0,0,0,.09.22.28.28,0,0,0,.22.09H120a.88.88,0,0,1,.66.32.91.91,0,0,1,.27.61.93.93,0,0,1-.93.93Z"/><path class="cls-1" d="M126.71,88.27a2.17,2.17,0,0,1-2.17-2.17V83.63a2.17,2.17,0,0,1,2.17-2.17h5a2.17,2.17,0,0,1,2.17,2.17v1.24a.88.88,0,0,1-.32.66.91.91,0,0,1-.61.27.93.93,0,0,1-.93-.93V83.63a.29.29,0,0,0-.09-.22.29.29,0,0,0-.22-.09h-5a.29.29,0,0,0-.22.09.29.29,0,0,0-.09.22v2.48a.32.32,0,0,0,.31.31h3.72a.88.88,0,0,1,.66.32.91.91,0,0,1,.27.61.93.93,0,0,1-.93.93Z"/><path class="cls-3" d="M132.25,88a.93.93,0,1,1,.66.27A.9.9,0,0,1,132.25,88Z"/><path class="cls-1" d="M137.14,88.27A2.17,2.17,0,0,1,135,86.11v-6.2a.93.93,0,0,1,.93-.93.91.91,0,0,1,.61.27.88.88,0,0,1,.32.66v6.2a.32.32,0,0,0,.31.31h1.24a.87.87,0,0,1,.66.32.9.9,0,0,1,.28.61.93.93,0,0,1-.93.93Z"/><path class="cls-3" d="M140.2,88a.93.93,0,0,1,0-1.31.93.93,0,1,1,0,1.31Z"/></svg>